<svg width="1000" height="252" viewBox="0 0 1000 252" fill="none" xmlns="http://www.w3.org/2000/svg">
<path d="M564.705 124.961C564.705 152.755 556.427 177.436 540.024 198.548C536.721 202.877 533.076 207.053 529.051 211.078C525.672 214.458 522.216 217.571 518.647 220.419C496.966 237.923 471.488 246.77 442.821 246.77C409.331 246.77 380.398 234.772 356.705 211.078C333.049 187.423 321.051 158.451 321.051 124.999C321.051 91.547 333.049 62.5756 356.705 38.9199C380.398 15.2643 409.369 3.26562 442.821 3.26562C471.526 3.26562 496.966 12.1127 518.647 29.6172C522.216 32.427 525.709 35.5406 529.051 38.9199C533.076 42.9448 536.721 47.0836 540.024 51.3742C556.427 72.5238 564.705 97.2426 564.705 124.999V124.961Z" fill="url(#paint0_linear_6633_19643)"/>
<path d="M71.6115 31.3764H97.5451C100.051 27.6553 102.975 24.162 106.316 20.8206C119.492 7.60687 135.515 1 154.348 1H145.957C144.932 1 143.907 1 142.881 1.07594C142.464 1.03797 141.97 1 141.552 1H71.6115C52.7784 1 36.755 7.60687 23.5794 20.8206C10.3658 33.9964 3.79701 49.944 3.79701 68.6255C3.79701 89.775 11.8846 107.09 28.0599 120.607C9.34063 134.922 0 153.831 0 177.373C0 197.042 6.94852 213.863 20.9595 227.874C34.9325 241.847 51.7912 248.796 71.6115 248.796H141.552C141.97 248.796 142.426 248.758 142.843 248.72C143.869 248.796 144.894 248.796 145.957 248.796H154.348C134.528 248.796 117.669 241.847 103.696 227.874C100.621 224.836 97.8868 221.609 95.5327 218.267H71.6115C60.2585 218.267 50.6141 214.356 42.5644 206.382C34.6287 198.371 30.6798 188.726 30.6798 177.373C30.6798 166.02 34.6287 156.337 42.5644 148.326C50.6141 140.314 60.2585 136.289 71.6115 136.289H95.3428C99.4816 130.555 104.646 125.353 110.797 120.607C105.405 116.089 100.886 111.152 97.3173 105.799H71.6115C61.2837 105.761 52.4746 102.191 45.2223 95.015C37.9701 87.7626 34.287 78.9914 34.287 68.6255C34.287 58.2595 37.9701 49.6782 45.2223 42.4258C52.4746 35.0216 61.2837 31.3764 71.6115 31.3764Z" fill="url(#paint1_linear_6633_19643)"/>
<g filter="url(#filter0_d_6633_19643)">
<path d="M153.018 31.3764H178.951C181.457 27.6553 184.381 24.162 187.722 20.8206C200.898 7.60686 216.921 1 235.755 1H227.363C226.338 1 225.313 1 224.288 1.07594C223.87 1.03797 223.376 1 222.959 1H153.018C134.185 1 118.161 7.60686 104.986 20.8206C91.7721 33.9964 85.2033 49.944 85.2033 68.6255C85.2033 89.775 93.2909 107.09 109.466 120.607C90.7469 134.922 81.4062 153.831 81.4062 177.373C81.4062 197.042 88.3548 213.863 102.366 227.874C116.339 241.847 133.197 248.795 153.018 248.795H222.959C223.376 248.795 223.832 248.758 224.25 248.72C225.275 248.796 226.3 248.795 227.363 248.795H235.755C215.934 248.795 199.076 241.847 185.103 227.874C182.027 224.836 179.293 221.609 176.939 218.267H153.018C141.665 218.267 132.02 214.356 123.971 206.382C116.035 198.371 112.086 188.726 112.086 177.373C112.086 166.02 116.035 156.337 123.971 148.326C132.02 140.314 141.665 136.289 153.018 136.289H176.749C180.888 130.555 186.052 125.353 192.203 120.607C186.811 116.089 182.331 111.228 178.762 105.875L160.308 105.799H153.018C142.69 105.761 133.881 102.191 126.629 95.015C119.376 87.7626 115.693 78.9914 115.693 68.6255C115.693 58.2595 119.376 49.6782 126.629 42.4258C133.881 35.0216 142.69 31.3764 153.018 31.3764Z" fill="url(#paint2_linear_6633_19643)"/>
</g>
<path d="M297.304 1H227.363C226.338 1 225.313 1 224.288 1.07594C223.87 1.03797 223.376 1 222.959 1H153.018C134.185 1 118.161 7.60686 104.986 20.8206C101.644 24.162 98.7206 27.6553 96.2146 31.3764C88.8484 42.2739 85.2033 54.6903 85.2033 68.6255C85.2033 82.5606 88.8104 95.1289 95.9868 105.799C99.5559 111.152 104.074 116.089 109.466 120.607C103.315 125.353 98.151 130.555 94.0123 136.289C85.583 147.908 81.4062 161.615 81.4062 177.373C81.4062 193.131 85.6589 206.382 94.2022 218.267C96.5563 221.609 99.2902 224.836 102.366 227.874C116.339 241.847 133.197 248.795 153.018 248.795H222.959C223.376 248.795 223.832 248.758 224.25 248.72C225.275 248.796 226.3 248.795 227.363 248.795H297.304C303.341 248.795 308.201 243.935 308.201 237.898V11.9355C308.201 5.89818 303.341 1 297.304 1ZM277.674 207.256C277.674 210.331 276.648 212.989 274.56 215.154C272.32 217.242 269.662 218.267 266.586 218.267H153.018C141.665 218.267 132.02 214.356 123.971 206.382C116.035 198.371 112.048 188.726 112.048 177.373C112.048 166.02 116.035 156.337 123.971 148.326C132.02 140.314 141.665 136.289 153.018 136.289H277.674V207.256ZM277.674 105.913L254.246 105.837H236.362C236.362 105.837 236.324 105.799 236.286 105.799H194.937V105.913L171.509 105.837H160.308C160.308 105.837 160.27 105.799 160.232 105.799H153.018C142.69 105.761 133.881 102.191 126.629 95.015C119.376 87.7626 115.693 78.9914 115.693 68.6255C115.693 58.2595 119.376 49.6782 126.629 42.4258C133.881 35.0216 142.69 31.3764 153.018 31.3764H266.586C269.662 31.3764 272.32 32.4775 274.56 34.6419C276.648 36.8821 277.674 39.5401 277.674 42.5777V105.913Z" fill="url(#paint3_linear_6633_19643)"/>
<path d="M685.506 37.2998C661.167 13.0746 631.93 1 597.719 1C570.495 1 546.384 8.63207 525.538 24.0481C528.841 26.744 531.993 29.6298 535.106 32.7054C539.435 37.034 543.384 41.5525 546.953 46.1849C561.837 36.2746 578.81 31.3384 597.719 31.3384C623.539 31.3384 645.637 40.4513 663.901 58.7152C682.127 76.979 691.277 99.0399 691.277 124.86C691.277 150.68 682.127 172.779 663.901 191.042C645.637 209.192 623.539 218.229 597.719 218.229C578.81 218.229 561.837 213.331 546.991 203.497C543.46 208.167 539.473 212.686 535.106 216.976C531.993 220.052 528.803 223.014 525.5 225.671C546.384 241.05 570.457 248.72 597.719 248.72C631.93 248.72 661.167 236.607 685.506 212.42C709.693 188.195 721.805 158.995 721.805 124.784C721.805 90.5724 709.693 61.3731 685.506 37.1859V37.2998Z" fill="url(#paint4_linear_6633_19643)"/>
<path d="M763.369 233.837C763.369 238.014 761.888 241.545 758.926 244.393C755.965 247.355 752.433 248.836 748.371 248.836H747.877C743.814 248.836 740.283 247.355 737.321 244.393C734.36 241.545 732.879 238.014 732.879 233.837V75.4623C732.879 54.8823 740.131 37.34 754.674 22.8352C769.178 8.33049 786.72 1.07812 807.3 1.07812C831.829 1.07812 851.573 10.7986 866.534 30.2774C881.38 10.7986 901.086 1.07812 925.615 1.07812C946.157 1.07812 963.737 8.33049 978.241 22.8352C992.746 37.34 999.998 54.8823 999.998 75.4623V233.837C999.998 238.014 998.555 241.545 995.708 244.393C992.86 247.241 989.177 248.836 985 248.836H984.658C980.482 248.836 976.95 247.355 974.103 244.393C971.141 241.545 969.66 238.014 969.66 233.837V75.4623C969.66 63.2358 965.37 52.8699 956.788 44.2885C948.207 35.7072 937.803 31.4166 925.615 31.4166C913.427 31.4166 903.175 35.7072 894.593 44.2885C886.012 52.8699 881.722 63.2738 881.722 75.4623V233.837C881.722 238.014 880.241 241.545 877.279 244.393C874.431 247.355 870.9 248.836 866.723 248.836H866.382C862.205 248.836 858.636 247.355 855.674 244.393C852.712 241.545 851.232 238.014 851.232 233.837V75.4623C851.232 63.2358 846.941 52.8699 838.36 44.2885C829.779 35.7072 819.451 31.4166 807.338 31.4166C795.226 31.4166 784.898 35.7072 776.317 44.2885C767.735 52.8699 763.445 63.2738 763.445 75.4623V233.837H763.369Z" fill="url(#paint5_linear_6633_19643)"/>
<defs>
<filter id="filter0_d_6633_19643" x="77.4062" y="0" width="158.348" height="251.797" filterUnits="userSpaceOnUse" color-interpolation-filters="sRGB">
<feFlood flood-opacity="0" result="BackgroundImageFix"/>
<feColorMatrix in="SourceAlpha" type="matrix" values="0 0 0 0 0 0 0 0 0 0 0 0 0 0 0 0 0 0 127 0" result="hardAlpha"/>
<feOffset dx="-2" dy="1"/>
<feGaussianBlur stdDeviation="1"/>
<feColorMatrix type="matrix" values="0 0 0 0 0.113725 0 0 0 0 0.113725 0 0 0 0 0.105882 0 0 0 0.25 0"/>
<feBlend mode="normal" in2="BackgroundImageFix" result="effect1_dropShadow_6633_19643"/>
<feBlend mode="normal" in="SourceGraphic" in2="effect1_dropShadow_6633_19643" result="shape"/>
</filter>
<linearGradient id="paint0_linear_6633_19643" x1="289.384" y1="273.008" x2="657.128" y2="-81.7082" gradientUnits="userSpaceOnUse">
<stop offset="0.17" stop-color="#F1894F"/>
<stop offset="0.3" stop-color="#EE7646"/>
<stop offset="0.57" stop-color="#E8462F"/>
<stop offset="0.75" stop-color="#E42520"/>
</linearGradient>
<linearGradient id="paint1_linear_6633_19643" x1="65.4604" y1="1.15188" x2="98.4571" y2="256.01" gradientUnits="userSpaceOnUse">
<stop stop-color="white"/>
<stop offset="0.42" stop-color="#ECECEC"/>
<stop offset="1" stop-color="#CECDCE"/>
</linearGradient>
<linearGradient id="paint2_linear_6633_19643" x1="146.867" y1="1.15188" x2="179.825" y2="256.01" gradientUnits="userSpaceOnUse">
<stop stop-color="white"/>
<stop offset="0.42" stop-color="#ECECEC"/>
<stop offset="1" stop-color="#CECDCE"/>
</linearGradient>
<linearGradient id="paint3_linear_6633_19643" x1="181.837" y1="-3.36661" x2="215.859" y2="259.427" gradientUnits="userSpaceOnUse">
<stop stop-color="white"/>
<stop offset="0.42" stop-color="#ECECEC"/>
<stop offset="1" stop-color="#CECDCE"/>
</linearGradient>
<linearGradient id="paint4_linear_6633_19643" x1="591.112" y1="-107.178" x2="648.486" y2="383.894" gradientUnits="userSpaceOnUse">
<stop stop-color="white"/>
<stop offset="0.42" stop-color="#ECECEC"/>
<stop offset="1" stop-color="#CECDCE"/>
</linearGradient>
<linearGradient id="paint5_linear_6633_19643" x1="830.386" y1="-125.895" x2="896.228" y2="382.909" gradientUnits="userSpaceOnUse">
<stop offset="0.17" stop-color="white"/>
<stop offset="0.52" stop-color="#ECECEC"/>
<stop offset="1" stop-color="#CECDCE"/>
</linearGradient>
</defs>
</svg>
